# xmcd
#
# Track frame offsets:
#	150
#	11668
#	23001
#	32512
#	43557
#	59252
#	68370
#	83834
#	92292
#	105871
#	114725
#	116176
#	130632
#	142309
#	154277
#	164734
#	182888
#	198252
#	209888
#	229154
#
# Disc length: 3404 seconds
#
# Revision: 0
# Processed by: cddbd v1.5.2PL0 Copyright (c) Steve Scherf et al.
# Submitted via: EasyCDDAExtractor 15.2.5.1
#
DISCID=110d4a14
DTITLE=Various Artist - Miettinen - pieni rockhistoriikki 1979-2000 cd1
DYEAR=1900
DGENRE=
TTITLE0=Se - Punk on typerää
TTITLE1=Ypö-Viis - Pelkään pimeää
TTITLE2=Vandaalit - Kaikkein komein
TTITLE3=Tinneri - Mustavalkoinen maailma
TTITLE4=SIG - Väkivaltaa
TTITLE5=Vandaalit - Sporttipoika
TTITLE6=Hassisen Kone - Kolumbia orkesteri
TTITLE7=Tyhjät Patterit - Tässä ja nyt
TTITLE8=Hurskas - Isänmaa huumaa
TTITLE9=Mekaaniset Kakut - Mä voin kertoa sulle
TTITLE10=Erkki and Esinahkat - Hitleri on hyvä jätkä
TTITLE11=Belaboris - Kuolleet peilit
TTITLE12=Syyskuu - Susi
TTITLE13=Dogs d’Amour - How Do You Fall In Love
TTITLE14=Van Hurskas - Viikonloppueläin
TTITLE15=Belaboris - Rakkauden jälkeen - Was ich dir sagen will 
TTITLE16=Juliet Jonesin Sydän - Juliet Jonesin Sydän
TTITLE17=AD - Rockabilly
TTITLE18=Dogs d’Amour - Heroine
TTITLE19=Ret Marut - Askeleet yössä
EXTD=
EXTT0=
EXTT1=
EXTT2=
EXTT3=
EXTT4=
EXTT5=
EXTT6=
EXTT7=
EXTT8=
EXTT9=
EXTT10=
EXTT11=
EXTT12=
EXTT13=
EXTT14=
EXTT15=
EXTT16=
EXTT17=
EXTT18=
EXTT19=
PLAYORDER=
